<svg xmlns="http://www.w3.org/2000/svg" version="1.1" xmlns:xlink="http://www.w3.org/1999/xlink" xmlns:svgjs="http://svgjs.dev/svgjs" width="2560" height="1304"><rect width="2560" height="1304" fill="#001219"></rect><path d="M0 1304 V82 S1014.2488859020134 -827.1946899243375
    1718 82S2299.4023160674546 1229.3279214815325
    3436 82S4400.325382792601 1029.01066409521
    5153 82H2560 V1304 z" fill="#006578"></path><path d="M0 1304 V245 S169.89132320729183 1230.5812921215067
    1320 245S1742.122064781791 1144.2061213325908
    2640 245S2944.4445734639326 1084.0580871265702
    3961 245H2560 V1304 z" fill="#3ea39f"></path><path d="M0 1304 V408 S354.24389230822345 -167.40368809583674
    1324 408S2394.6559152409045 311.377380745905
    2648 408S3953.7495329932963 1314.9690920312203
    3972 408H2560 V1304 z" fill="#b1d6ae"></path><path d="M0 1304 V571 S1168.4811195761847 -517.7794476671709
    2057 571S2775.386020632092 1625.8721040855776
    4113 571S5605.297779522371 1807.0072159557583
    6170 571H2560 V1304 z" fill="#e9bc5f"></path><path d="M0 1304 V734 S934.4995739536848 -326.2711977293902
    1581 734S2674.7582425539636 -594.9608781649877
    3162 734S4573.067524897879 -372.8273694893667
    4742 734H2560 V1304 z" fill="#d87a00"></path><path d="M0 1304 V897 S1330.0563203758716 146.43630686248378
    2074 897S3354.7182587824 799.8013346375106
    4148 897S5989.107447968636 197.54033356027935
    6222 897H2560 V1304 z" fill="#bf4902"></path><path d="M0 1304 V1060 S1054.973727659453 517.1391047784524
    1085 1060S1384.382417480109 2405.829223676299
    2169 1060S2515.5746181715135 1445.3680667228791
    3254 1060H2560 V1304 z" fill="#b02411"></path><path d="M0 1304 V1223 S1327.5181192020673 375.7068950040432
    1455 1223S2562.0632385122535 2200.1077498937384
    2909 1223S3065.548306149182 1589.340722679613
    4364 1223H2560 V1304 z" fill="#9b2226"></path></svg>